<svg viewBox="0 0 72 72" xmlns="http://www.w3.org/2000/svg"><g fill="#b1cc33"><path d="m8.661 40.827 5.837-3.226 2.534-.461 11.06 4.071 9.37 1.075 8.985-1.69 10.061-3.763 6.912 3.302-4.684 3.149-6.298 1.69 2.841 3.763.893 4.896-7.958-.441-5.223-1.383-3.072 5.069-3.392 2.423-5.056-4.343-2.15-3.302-4.455 1.843-7.757.845-.718-4.878 2.331-3.187-6.989-2.995-3.072-2.457z"/><path d="m8.661 40.827 5.837-3.226 2.534-.461 11.06 4.071 9.37 1.075 8.985-1.69 10.061-3.763 6.912 3.302-4.684 3.149-6.298 1.69 2.841 3.763.893 4.896-7.958-.441-5.223-1.383-3.072 5.069-3.392 2.423-5.056-4.343-2.15-3.302-4.455 1.843-7.757.845-.718-4.878 2.331-3.187-6.989-2.995-3.072-2.457z"/></g><path fill="#5c9e31" d="m38.466 44.194 6.336-1.769 5.901-1.989 4.045-4.052 5.747 2.284 2.947 1.989-3.095 2.063-6.262 1.915-.884 1.18 2.579 4.567.392 3.25-6.728-.524-6.452-1.3-.768 2.258L36 59V45l2.466-.806Z"/><path fill="#ffa7c0" d="m17.004 33.533.919-8.227 2.941-7.705 1.837.563 3.976 3.384 1.789-2.541 4.274-4.376 3.566-1.932 5.749 4.082 2.175 2.273 1.506 2.447 3.516-2.723 2.497-1.177 3.43 9.856.242 8.448-4.718 4.531-8.407 2.995-5.08.692-5.201-.077-6.835-2.151-5.987-3.609-2.189-4.753z"/><path fill="#e67a94" d="m44.271 23.625 4.34-4.799 2.625-1.206 2.582 4.685 1.783 9.37-.233 5.535-6.039 3.912-8.362 2.499-4.796.39 8.1-20.386Z"/><g fill="none" stroke="#000" stroke-linecap="round" stroke-width="2"><path stroke-linejoin="round" d="M31.037 43.57a23.539 23.539 0 0 1-8.907 2.02 20.63 20.63 0 0 1-2.38-.11A27.592 27.592 0 0 1 8 41.14a20.018 20.018 0 0 1 9.698-4.035"/><path stroke-linejoin="round" d="M35.608 44.593a10.596 10.596 0 0 1-4.278 6.077c-.571.392-1.173.736-1.8 1.03-5.42 2.61-12.96 2.43-12.96 2.43a11.359 11.359 0 0 1 3.18-8.65c.79.083 1.585.12 2.38.11a23.539 23.539 0 0 0 8.907-2.02"/><path stroke-linejoin="round" d="M36.59 44.524a10.994 10.994 0 0 0 4.64 6.016c.593.376 1.215.704 1.86.98v.01C42.05 55.91 36 59 36 59s-5.18-2.95-6.47-7.3a12.723 12.723 0 0 0 1.8-1.03 10.596 10.596 0 0 0 4.276-6.07"/><path stroke-linejoin="round" d="M36.781 45.07a10.945 10.945 0 0 0 4.449 5.47c.593.376 1.215.704 1.86.98v.01c5.57 2.47 13.08 2.1 13.08 2.1a11.65 11.65 0 0 0-3.67-8.56 11.42 11.42 0 0 0-1.56-1.19 15.85 15.85 0 0 0-3.447-1.603"/><path stroke-linejoin="round" d="M54.723 36.5c3.306.74 6.45 2.075 9.277 3.94a26.485 26.485 0 0 1-11.5 4.63 11.42 11.42 0 0 0-1.56-1.19 16.418 16.418 0 0 0-3.949-1.766m-10.685 2.449s-19.302-2.45-19.302-11.03 2.895-14.707 3.86-15.932 6.756 4.902 6.756 7.353"/><path stroke-linejoin="round" d="M44.993 24.954c0-2.45 5.79-8.579 6.756-7.353s3.86 7.353 3.86 15.932-19.303 11.03-19.303 11.03"/><path stroke-miterlimit="10" d="M43.353 19.534s-4.698-6.317-7.047-6.317-7.047 6.317-7.047 6.317"/></g></svg>